<?xml version="1.0" standalone="no"?>
<!DOCTYPE svg PUBLIC "-//W3C//DTD SVG 20010904//EN"
 "http://www.w3.org/TR/2001/REC-SVG-20010904/DTD/svg10.dtd">
<svg version="1.0" xmlns="http://www.w3.org/2000/svg"
 width="352.988696pt" height="352.485442pt" viewBox="0 0 352.988696 352.485442"
 preserveAspectRatio="xMidYMid meet">
<metadata>
Created by potrace 1.12, written by Peter Selinger 2001-2015
</metadata>
<g transform="translate(-78.505652,381.000000) scale(0.100000,-0.100000)"
fill="#000000" stroke="none">
<path d="M1665 2930 l-880 -880 178 -177 177 -178 708 708 707 707 705 -705
705 -705 175 175 175 175 -880 880 c-484 484 -882 880 -885 880 -3 0 -401
-396 -885 -880z"/>
<path d="M2027 1879 c-290 -286 -527 -527 -527 -534 0 -7 79 -88 176 -181
l175 -168 352 352 352 352 353 -352 352 -353 175 175 175 175 -528 528 -528
528 -527 -522z"/>
<path d="M2382 817 c-94 -95 -172 -177 -172 -182 0 -6 77 -87 170 -180 l170
-170 178 178 177 177 -175 175 -175 175 -173 -173z"/>
</g>
</svg>
